<!DOCTYPE svg PUBLIC "-//W3C//DTD SVG 1.1//EN" "http://www.w3.org/Graphics/SVG/1.1/DTD/svg11.dtd"> <svg width="521px" height="521px" version="1.1" baseProfile="full" xmlns="http://www.w3.org/2000/svg" xmlns:xlink="http://www.w3.org/1999/xlink" xmlns:ev="http://www.w3.org/2001/xml-events"><polygon fill="rgb(228,119,25)" stroke="rgb(228,119,25)" points="261.6949624866247,211.80260360240936 212.76486906409264,225.54456889629364 198.3707446604967,175.88934610784054"></polygon><polygon fill="rgb(119,57,0)" stroke="rgb(119,57,0)" points="213.35076448321342,127.38333164155483 244.19278041273355,109.45205327868462 259.96462519466877,113.71251676976681"></polygon><polygon fill="rgb(119,57,0)" stroke="rgb(119,57,0)" points="244.19278041273355,109.45205327868462 206.02308915555477,101.33098813891411 203.71510012447834,92.3531092107296"></polygon><polygon fill="rgb(119,57,0)" stroke="rgb(119,57,0)" points="207.63766215741634,112.11277735233307 244.19278041273355,109.45205327868462 213.35076448321342,127.38333164155483"></polygon><polygon fill="rgb(119,57,0)" stroke="rgb(119,57,0)" points="207.63766215741634,112.11277735233307 206.02308915555477,101.33098813891411 244.19278041273355,109.45205327868462"></polygon><polygon fill="rgb(119,57,0)" stroke="rgb(119,57,0)" points="243.8928562104702,63.11182790994644 244.19278041273355,109.45205327868462 203.71510012447834,92.3531092107296"></polygon><polygon fill="rgb(119,57,0)" stroke="rgb(119,57,0)" points="259.96462519466877,113.71251676976681 244.19278041273355,109.45205327868462 243.8928562104702,63.11182790994644"></polygon><polygon fill="rgb(247,132,25)" stroke="rgb(247,132,25)" points="325.99940306693316,85.14924243092537 292.44105164147913,85.31458774209023 280.23928774893284,48.742358922958374"></polygon><polygon fill="rgb(247,132,25)" stroke="rgb(247,132,25)" points="280.23928774893284,48.742358922958374 341.12921092659235,48.18101352453232 325.99940306693316,85.14924243092537"></polygon><polygon fill="rgb(228,119,25)" stroke="rgb(228,119,25)" points="425.042720451951,177.18881410360336 410.5153139382601,227.8359385728836 356.78265956789255,212.74464493989944"></polygon><polygon fill="rgb(119,57,0)" stroke="rgb(119,57,0)" points="408.3204248547554,127.38229056447744 360.3929133117199,113.55074116587639 377.57472444325686,109.1699350476265"></polygon><polygon fill="rgb(228,119,25)" stroke="rgb(228,119,25)" points="292.44105164147913,85.31458774209023 206.1842586696148,22.071842551231384 280.23928774893284,48.742358922958374"></polygon><polygon fill="rgb(119,57,0)" stroke="rgb(119,57,0)" points="414.24733370542526,111.73884683847427 408.3204248547554,127.38229056447744 377.57472444325686,109.1699350476265"></polygon><polygon fill="rgb(119,57,0)" stroke="rgb(119,57,0)" points="414.24733370542526,111.73884683847427 377.57472444325686,109.1699350476265 415.99100199341774,100.68334364891052"></polygon><polygon fill="rgb(119,57,0)" stroke="rgb(119,57,0)" points="377.57472444325686,109.1699350476265 418.42041820287704,91.4627834558487 415.99100199341774,100.68334364891052"></polygon><polygon fill="rgb(228,119,25)" stroke="rgb(228,119,25)" points="198.3707446604967,175.88934610784054 237.4501882046461,175.69613859057426 261.6949624866247,211.80260360240936"></polygon><polygon fill="rgb(247,132,25)" stroke="rgb(247,132,25)" points="244.30723109841347,134.88790108636022 198.3707446604967,175.88934610784054 213.35076448321342,127.38333164155483"></polygon><polygon fill="rgb(247,132,25)" stroke="rgb(247,132,25)" points="237.4501882046461,175.69613859057426 198.3707446604967,175.88934610784054 244.30723109841347,134.88790108636022"></polygon><polygon fill="rgb(119,57,0)" stroke="rgb(119,57,0)" points="418.42041820287704,91.4627834558487 377.57472444325686,109.1699350476265 375.7331763803959,62.11409157514572"></polygon><polygon fill="rgb(119,57,0)" stroke="rgb(119,57,0)" points="375.7331763803959,62.11409157514572 377.57472444325686,109.1699350476265 360.3929133117199,113.55074116587639"></polygon><polygon fill="rgb(225,119,25)" stroke="rgb(225,119,25)" points="413.0897279381752,19.495459377765656 325.99940306693316,85.14924243092537 341.12921092659235,48.18101352453232"></polygon><polygon fill="rgb(119,57,0)" stroke="rgb(119,57,0)" points="213.35076448321342,127.38333164155483 203.1708222925663,115.35928849875927 207.63766215741634,112.11277735233307"></polygon><polygon fill="rgb(119,57,0)" stroke="rgb(119,57,0)" points="198.8807109594345,95.91728228330612 203.71510012447834,92.3531092107296 206.02308915555477,101.33098813891411"></polygon><polygon fill="rgb(119,57,0)" stroke="rgb(119,57,0)" points="207.63766215741634,112.11277735233307 200.5594324171543,105.60714027285576 206.02308915555477,101.33098813891411"></polygon><polygon fill="rgb(119,57,0)" stroke="rgb(119,57,0)" points="243.8928562104702,63.11182790994644 292.44105164147913,85.31458774209023 259.96462519466877,113.71251676976681"></polygon><polygon fill="rgb(119,57,0)" stroke="rgb(119,57,0)" points="203.71510012447834,92.3531092107296 195.81338430941105,55.99865144491196 243.8928562104702,63.11182790994644"></polygon><polygon fill="rgb(247,132,25)" stroke="rgb(247,132,25)" points="373.20934311300516,135.00103286281228 408.3204248547554,127.38229056447744 425.042720451951,177.18881410360336"></polygon><polygon fill="rgb(228,119,25)" stroke="rgb(228,119,25)" points="356.78265956789255,212.74464493989944 380.1691535040736,176.50730887055397 425.042720451951,177.18881410360336"></polygon><polygon fill="rgb(247,132,25)" stroke="rgb(247,132,25)" points="373.20934311300516,135.00103286281228 425.042720451951,177.18881410360336 380.1691535040736,176.50730887055397"></polygon><polygon fill="rgb(247,132,25)" stroke="rgb(247,132,25)" points="213.35076448321342,127.38333164155483 259.96462519466877,113.71251676976681 244.30723109841347,134.88790108636022"></polygon><polygon fill="rgb(119,57,0)" stroke="rgb(119,57,0)" points="360.3929133117199,113.55074116587639 325.99940306693316,85.14924243092537 375.7331763803959,62.11409157514572"></polygon><polygon fill="rgb(119,57,0)" stroke="rgb(119,57,0)" points="408.3204248547554,127.38229056447744 414.24733370542526,111.73884683847427 418.7380041182041,115.05168226361275"></polygon><polygon fill="rgb(228,119,25)" stroke="rgb(228,119,25)" points="259.96462519466877,113.71251676976681 292.44105164147913,85.31458774209023 293.89898311905563,137.0156456977129"></polygon><polygon fill="rgb(228,119,25)" stroke="rgb(228,119,25)" points="293.89898311905563,137.0156456977129 244.30723109841347,134.88790108636022 259.96462519466877,113.71251676976681"></polygon><polygon fill="rgb(119,57,0)" stroke="rgb(119,57,0)" points="414.24733370542526,111.73884683847427 415.99100199341774,100.68334364891052 421.4863709062338,105.03698301315308"></polygon><polygon fill="rgb(119,57,0)" stroke="rgb(119,57,0)" points="423.28983372449875,95.08079838752747 415.99100199341774,100.68334364891052 418.42041820287704,91.4627834558487"></polygon><polygon fill="rgb(247,132,25)" stroke="rgb(247,132,25)" points="408.3204248547554,127.38229056447744 373.20934311300516,135.00103286281228 360.3929133117199,113.55074116587639"></polygon><polygon fill="rgb(228,119,25)" stroke="rgb(228,119,25)" points="360.3929133117199,113.55074116587639 373.20934311300516,135.00103286281228 321.4286016244441,137.04651899076998"></polygon><polygon fill="rgb(228,119,25)" stroke="rgb(228,119,25)" points="321.4286016244441,137.04651899076998 325.99940306693316,85.14924243092537 360.3929133117199,113.55074116587639"></polygon><polygon fill="rgb(119,57,0)" stroke="rgb(119,57,0)" points="375.7331763803959,62.11409157514572 425.54101748764515,54.056856751441956 418.42041820287704,91.4627834558487"></polygon><polygon fill="rgb(119,57,0)" stroke="rgb(119,57,0)" points="206.1842586696148,22.071842551231384 292.44105164147913,85.31458774209023 243.8928562104702,63.11182790994644"></polygon><polygon fill="rgb(119,57,0)" stroke="rgb(119,57,0)" points="243.8928562104702,63.11182790994644 195.81338430941105,55.99865144491196 206.1842586696148,22.071842551231384"></polygon><polygon fill="rgb(205,98,0)" stroke="rgb(205,98,0)" points="261.6949624866247,211.80260360240936 237.4501882046461,175.69613859057426 264.6280833259225,176.11599415540695"></polygon><polygon fill="rgb(119,57,0)" stroke="rgb(119,57,0)" points="375.7331763803959,62.11409157514572 325.99940306693316,85.14924243092537 413.0897279381752,19.495459377765656"></polygon><polygon fill="rgb(119,57,0)" stroke="rgb(119,57,0)" points="413.0897279381752,19.495459377765656 425.54101748764515,54.056856751441956 375.7331763803959,62.11409157514572"></polygon><polygon fill="rgb(247,132,25)" stroke="rgb(247,132,25)" points="292.44105164147913,85.31458774209023 325.99940306693316,85.14924243092537 321.4286016244441,137.04651899076998"></polygon><polygon fill="rgb(247,132,25)" stroke="rgb(247,132,25)" points="321.4286016244441,137.04651899076998 293.89898311905563,137.0156456977129 292.44105164147913,85.31458774209023"></polygon><polygon fill="rgb(205,98,0)" stroke="rgb(205,98,0)" points="356.78265956789255,212.74464493989944 351.10262943804264,176.6101811528206 380.1691535040736,176.50730887055397"></polygon><polygon fill="rgb(192,172,157)" stroke="rgb(192,172,157)" points="270.65471935272217,219.8235656619072 261.6949624866247,211.80260360240936 286.10859063640237,224.86574882268906"></polygon><polygon fill="rgb(247,132,25)" stroke="rgb(247,132,25)" points="244.30723109841347,134.88790108636022 264.6280833259225,176.11599415540695 237.4501882046461,175.69613859057426"></polygon><polygon fill="rgb(228,116,36)" stroke="rgb(228,116,36)" points="244.30723109841347,134.88790108636022 264.0931214094162,155.55631763488054 264.6280833259225,176.11599415540695"></polygon><polygon fill="rgb(205,98,0)" stroke="rgb(205,98,0)" points="264.0931214094162,155.55631763488054 244.30723109841347,134.88790108636022 293.89898311905563,137.0156456977129"></polygon><polygon fill="rgb(192,172,157)" stroke="rgb(192,172,157)" points="324.12406682409346,225.29943358898163 356.78265956789255,212.74464493989944 345.86314184591174,220.6386355161667"></polygon><polygon fill="rgb(214,194,178)" stroke="rgb(214,194,178)" points="285.0745379514992,216.28646689653397 286.10859063640237,224.86574882268906 261.6949624866247,211.80260360240936"></polygon><polygon fill="rgb(214,194,178)" stroke="rgb(214,194,178)" points="261.6949624866247,211.80260360240936 287.3117896169424,196.2604553103447 285.0745379514992,216.28646689653397"></polygon><polygon fill="rgb(228,119,25)" stroke="rgb(228,119,25)" points="287.3117896169424,196.2604553103447 261.6949624866247,211.80260360240936 264.6280833259225,176.11599415540695"></polygon><polygon fill="rgb(214,194,178)" stroke="rgb(214,194,178)" points="323.5554559789598,216.68686240911484 356.78265956789255,212.74464493989944 324.12406682409346,225.29943358898163"></polygon><polygon fill="rgb(214,194,178)" stroke="rgb(214,194,178)" points="356.78265956789255,212.74464493989944 323.5554559789598,216.68686240911484 321.0140758808702,196.5320262014866"></polygon><polygon fill="rgb(228,119,25)" stroke="rgb(228,119,25)" points="321.0140758808702,196.5320262014866 351.10262943804264,176.6101811528206 356.78265956789255,212.74464493989944"></polygon><polygon fill="rgb(228,116,36)" stroke="rgb(228,116,36)" points="373.20934311300516,135.00103286281228 351.10262943804264,176.6101811528206 352.04078900069,155.8467025011778"></polygon><polygon fill="rgb(247,132,25)" stroke="rgb(247,132,25)" points="380.1691535040736,176.50730887055397 351.10262943804264,176.6101811528206 373.20934311300516,135.00103286281228"></polygon><polygon fill="rgb(205,98,0)" stroke="rgb(205,98,0)" points="321.4286016244441,137.04651899076998 373.20934311300516,135.00103286281228 352.04078900069,155.8467025011778"></polygon><polygon fill="rgb(205,98,0)" stroke="rgb(205,98,0)" points="293.89898311905563,137.0156456977129 281.88757814466953,147.4118760600686 264.0931214094162,155.55631763488054"></polygon><polygon fill="rgb(36,51,67)" stroke="rgb(36,51,67)" points="288.97795060276985,163.08860483765602 264.0931214094162,155.55631763488054 281.88757814466953,147.4118760600686"></polygon><polygon fill="rgb(247,132,25)" stroke="rgb(247,132,25)" points="264.6280833259225,176.11599415540695 264.0931214094162,155.55631763488054 288.97795060276985,163.08860483765602"></polygon><polygon fill="rgb(205,98,0)" stroke="rgb(205,98,0)" points="281.88757814466953,147.4118760600686 293.89898311905563,137.0156456977129 288.97795060276985,163.08860483765602"></polygon><polygon fill="rgb(205,98,0)" stroke="rgb(205,98,0)" points="352.04078900069,155.8467025011778 333.78474884852767,147.53336009010673 321.4286016244441,137.04651899076998"></polygon><polygon fill="rgb(36,51,67)" stroke="rgb(36,51,67)" points="325.856344351545,163.24252666532993 333.78474884852767,147.53336009010673 352.04078900069,155.8467025011778"></polygon><polygon fill="rgb(247,132,25)" stroke="rgb(247,132,25)" points="351.10262943804264,176.6101811528206 325.856344351545,163.24252666532993 352.04078900069,155.8467025011778"></polygon><polygon fill="rgb(192,172,157)" stroke="rgb(192,172,157)" points="286.10859063640237,224.86574882268906 287.6307007409632,233.49786829948425 270.65471935272217,219.8235656619072"></polygon><polygon fill="rgb(205,98,0)" stroke="rgb(205,98,0)" points="333.78474884852767,147.53336009010673 325.856344351545,163.24252666532993 321.4286016244441,137.04651899076998"></polygon><polygon fill="rgb(228,116,36)" stroke="rgb(228,116,36)" points="288.97795060276985,163.08860483765602 293.89898311905563,137.0156456977129 294.44119771011174,153.3473012521863"></polygon><polygon fill="rgb(247,132,25)" stroke="rgb(247,132,25)" points="294.44119771011174,153.3473012521863 293.89898311905563,137.0156456977129 321.4286016244441,137.04651899076998"></polygon><polygon fill="rgb(192,172,157)" stroke="rgb(192,172,157)" points="345.86314184591174,220.6386355161667 322.2505605760962,233.92772912979126 324.12406682409346,225.29943358898163"></polygon><polygon fill="rgb(247,132,25)" stroke="rgb(247,132,25)" points="321.4286016244441,137.04651899076998 319.66573115531355,153.42377366870642 294.44119771011174,153.3473012521863"></polygon><polygon fill="rgb(225,119,25)" stroke="rgb(225,119,25)" points="325.856344351545,163.24252666532993 319.66573115531355,153.42377366870642 321.4286016244441,137.04651899076998"></polygon><polygon fill="rgb(247,132,25)" stroke="rgb(247,132,25)" points="287.3117896169424,196.2604553103447 264.6280833259225,176.11599415540695 288.97795060276985,163.08860483765602"></polygon><polygon fill="rgb(247,132,25)" stroke="rgb(247,132,25)" points="325.856344351545,163.24252666532993 351.10262943804264,176.6101811528206 321.0140758808702,196.5320262014866"></polygon><polygon fill="rgb(228,116,36)" stroke="rgb(228,116,36)" points="294.44119771011174,153.3473012521863 291.6339032314718,193.29696375131607 288.97795060276985,163.08860483765602"></polygon><polygon fill="rgb(247,132,25)" stroke="rgb(247,132,25)" points="288.97795060276985,163.08860483765602 291.6339032314718,193.29696375131607 287.3117896169424,196.2604553103447"></polygon><polygon fill="rgb(228,116,36)" stroke="rgb(228,116,36)" points="319.66573115531355,153.42377366870642 325.856344351545,163.24252666532993 316.6569695621729,193.4898203909397"></polygon><polygon fill="rgb(247,132,25)" stroke="rgb(247,132,25)" points="321.0140758808702,196.5320262014866 316.6569695621729,193.4898203909397 325.856344351545,163.24252666532993"></polygon><polygon fill="rgb(247,132,25)" stroke="rgb(247,132,25)" points="294.44119771011174,153.3473012521863 319.66573115531355,153.42377366870642 316.6569695621729,193.4898203909397"></polygon><polygon fill="rgb(247,132,25)" stroke="rgb(247,132,25)" points="316.6569695621729,193.4898203909397 291.6339032314718,193.29696375131607 294.44119771011174,153.3473012521863"></polygon><polygon fill="rgb(192,172,157)" stroke="rgb(192,172,157)" points="287.6307007409632,233.49786829948425 286.10859063640237,224.86574882268906 285.0745379514992,216.28646689653397"></polygon><polygon fill="rgb(192,172,157)" stroke="rgb(192,172,157)" points="323.5554559789598,216.68686240911484 324.12406682409346,225.29943358898163 322.2505605760962,233.92772912979126"></polygon><polygon fill="rgb(192,172,157)" stroke="rgb(192,172,157)" points="285.0745379514992,216.28646689653397 286.91383942589164,214.1959589123726 287.6307007409632,233.49786829948425"></polygon><polygon fill="rgb(192,172,157)" stroke="rgb(192,172,157)" points="287.6307007409632,233.49786829948425 286.91383942589164,214.1959589123726 320.9452358148992,214.5416511297226"></polygon><polygon fill="rgb(192,172,157)" stroke="rgb(192,172,157)" points="320.9452358148992,214.5416511297226 322.2505605760962,233.92772912979126 287.6307007409632,233.49786829948425"></polygon><polygon fill="rgb(192,172,157)" stroke="rgb(192,172,157)" points="322.2505605760962,233.92772912979126 320.9452358148992,214.5416511297226 323.5554559789598,216.68686240911484"></polygon><polygon fill="rgb(0,0,0)" stroke="rgb(0,0,0)" points="286.91383942589164,214.1959589123726 285.0745379514992,216.28646689653397 287.3117896169424,196.2604553103447"></polygon><polygon fill="rgb(0,0,0)" stroke="rgb(0,0,0)" points="321.0140758808702,196.5320262014866 323.5554559789598,216.68686240911484 320.9452358148992,214.5416511297226"></polygon><polygon fill="rgb(0,0,0)" stroke="rgb(0,0,0)" points="287.3117896169424,196.2604553103447 287.8976595066488,200.35619750618935 286.91383942589164,214.1959589123726"></polygon><polygon fill="rgb(0,0,0)" stroke="rgb(0,0,0)" points="287.3117896169424,196.2604553103447 291.6339032314718,193.29696375131607 290.6562380604446,197.27561366558075"></polygon><polygon fill="rgb(0,0,0)" stroke="rgb(0,0,0)" points="290.6562380604446,197.27561366558075 287.8976595066488,200.35619750618935 287.3117896169424,196.2604553103447"></polygon><polygon fill="rgb(0,0,0)" stroke="rgb(0,0,0)" points="290.6562380604446,197.27561366558075 291.6339032314718,193.29696375131607 316.6569695621729,193.4898203909397"></polygon><polygon fill="rgb(0,0,0)" stroke="rgb(0,0,0)" points="316.6569695621729,193.4898203909397 316.1321152630262,197.48384168744087 290.6562380604446,197.27561366558075"></polygon><polygon fill="rgb(0,0,0)" stroke="rgb(0,0,0)" points="316.1321152630262,197.48384168744087 316.6569695621729,193.4898203909397 321.0140758808702,196.5320262014866"></polygon><polygon fill="rgb(0,0,0)" stroke="rgb(0,0,0)" points="320.9452358148992,214.5416511297226 318.9149389276281,200.62098196148872 321.0140758808702,196.5320262014866"></polygon><polygon fill="rgb(0,0,0)" stroke="rgb(0,0,0)" points="321.0140758808702,196.5320262014866 318.9149389276281,200.62098196148872 316.1321152630262,197.48384168744087"></polygon><polygon fill="rgb(0,0,0)" stroke="rgb(0,0,0)" points="320.9452358148992,214.5416511297226 286.91383942589164,214.1959589123726 287.8976595066488,200.35619750618935"></polygon><polygon fill="rgb(0,0,0)" stroke="rgb(0,0,0)" points="287.8976595066488,200.35619750618935 318.9149389276281,200.62098196148872 320.9452358148992,214.5416511297226"></polygon><polygon fill="rgb(0,0,0)" stroke="rgb(0,0,0)" points="316.1321152630262,197.48384168744087 318.9149389276281,200.62098196148872 287.8976595066488,200.35619750618935"></polygon><polygon fill="rgb(0,0,0)" stroke="rgb(0,0,0)" points="287.8976595066488,200.35619750618935 290.6562380604446,197.27561366558075 316.1321152630262,197.48384168744087"></polygon></svg>